<svg id="Ebene_1" data-name="Ebene 1" xmlns="http://www.w3.org/2000/svg" preserveAspectRatio="none" viewBox="0 0 600 440">
  <defs>
    <style>
      .cls-1 {
        fill: #dd4b39;
      }

      .cls-2 {
        fill: #fff;
      }
    </style>
  </defs>
  <title>1befc851-2d39-4740-a023-e8708f61f361</title>
  <rect class="cls-1" width="600" height="440"/>
  <path class="cls-2" d="M206.1,201.5v40.6h67.2c-2.7,17.4-20.3,51.2-67.2,51.2-40.5,0-73.5-33.5-73.5-74.9s33-74.9,73.5-74.9c23,0,38.4,9.8,47.3,18.3l32.2-31c-20.7-19.3-47.4-31-79.4-31a118.6,118.6,0,1,0,0,237.1c68.4,0,113.8-48.1,113.8-115.9a108.9,108.9,0,0,0-1.9-19.6h-112Zm0,0L494,235.4H443.2v50.8H409.3V235.4H358.5V201.5h50.8V150.7h33.9v50.8H494v33.9Z"/>
</svg>
