<svg id="Ebene_1" data-name="Ebene 1" xmlns="http://www.w3.org/2000/svg" preserveAspectRatio="none" viewBox="0 0 24 19.5">
  <title>db9bfc0b-36e8-4aa7-b471-cd5ddce8da1c</title>
  <path fill="#55ACEE" d="M24,2.3a9.8,9.8,0,0,1-2.8.8A4.9,4.9,0,0,0,23.3.4a9.9,9.9,0,0,1-3.1,1.2A4.9,4.9,0,0,0,11.8,6,14,14,0,0,1,1.7.9,4.9,4.9,0,0,0,3.2,7.5,4.9,4.9,0,0,1,1,6.9a4.9,4.9,0,0,0,3.9,4.9,4.9,4.9,0,0,1-2.2.1,4.9,4.9,0,0,0,4.6,3.4,9.9,9.9,0,0,1-7.3,2,13.9,13.9,0,0,0,7.5,2.2,13.9,13.9,0,0,0,14-14.6A10,10,0,0,0,24,2.3Z"/>
</svg>
