<svg id="Layer_1" data-name="Layer 1" xmlns="http://www.w3.org/2000/svg" xmlns:xlink="http://www.w3.org/1999/xlink" preserveAspectRatio="none" viewBox="0 0 602 440">
  <defs>
    <style>
      .cls-1 {
        fill: none;
      }

      .cls-2 {
        fill: #55acee;
      }

      .cls-3 {
        clip-path: url(#clip-path);
      }

      .cls-4 {
        fill: #fff;
      }
    </style>
    <clipPath id="clip-path">
      <rect class="cls-1" x="123" y="69" width="379.3" height="308.22"/>
    </clipPath>
  </defs>
  <title>e42d4e7f-1a37-48c2-a3a0-7dd1788a5f92</title>
  <rect class="cls-2" width="602" height="440"/>
  <g class="cls-3">
    <path class="cls-4" d="M502.3,105.5a155.3,155.3,0,0,1-44.7,12.2,77.9,77.9,0,0,0,34.2-43,155.9,155.9,0,0,1-49.4,18.9A77.7,77.7,0,0,0,385.6,69c-50.2,0-87.2,46.9-75.8,95.5A220.9,220.9,0,0,1,149.4,83.2a77.9,77.9,0,0,0,24.1,103.9,77.5,77.5,0,0,1-35.2-9.7c-0.9,36,25,69.8,62.4,77.3a78,78,0,0,1-35.1,1.3,77.9,77.9,0,0,0,72.7,54A156.5,156.5,0,0,1,123,342.3a220.3,220.3,0,0,0,119.3,35c144.5,0,226.1-122,221.2-231.5a158.4,158.4,0,0,0,38.8-40.3"/>
  </g>
</svg>
