<svg id="WhatsApp_Logo" data-name="WhatsApp Logo" xmlns="http://www.w3.org/2000/svg" viewBox="0 0 626.71 495.59"><defs><style>.cls-1{fill:#fff;}</style></defs><title>WhatsApp</title><path class="cls-1" d="M230.76,309.88a151.25,151.25,0,0,0,72.32,18.42h.06c83.41,0,151.31-67.9,151.34-151.34A151.37,151.37,0,0,0,303.15,25.51c-83.42,0-151.31,67.89-151.34,151.33A151.07,151.07,0,0,0,172,252.5l-21.47,78.42ZM303.2,51.07A125.81,125.81,0,0,1,428.94,176.95c0,69.36-56.46,125.79-125.79,125.79h-.05a125.57,125.57,0,0,1-64-17.53l-4.59-2.73L186.87,295l12.71-46.42-3-4.76A125.86,125.86,0,0,1,303.2,51.07Zm3.09,188.38a217.82,217.82,0,0,0,21.56,8,51.85,51.85,0,0,0,23.82,1.5c7.27-1.09,22.37-9.15,25.52-18s3.15-16.4,2.21-18-3.47-2.52-7.25-4.41-22.37-11-25.84-12.3-6-1.89-8.51,1.89-9.77,12.3-12,14.82-4.41,2.84-8.19.95-16-5.89-30.41-18.77c-11.24-10-18.83-22.41-21-26.19s-.23-5.83,1.66-7.72c1.7-1.69,3.78-4.42,5.67-6.62a25.86,25.86,0,0,0,3.78-6.31,7,7,0,0,0-.32-6.62c-.95-1.89-8.51-20.51-11.66-28.08-3.07-7.38-6.19-6.38-8.51-6.49s-4.73-.13-7.25-.13a13.9,13.9,0,0,0-10.08,4.73c-3.47,3.79-13.23,12.93-13.23,31.55s13.55,36.6,15.44,39.12S268.35,223.07,306.29,239.45ZM120.45,415.22h-.22L106.9,361.44H90.84L77.29,414.56h-.22L64.72,361.44H47.57l20.65,78H85.6l13-53.12h.22L112,439.48h17l21-78H133.24Zm82-27.38a15.16,15.16,0,0,0-6.28-4.7,26.46,26.46,0,0,0-10.22-1.69,20.37,20.37,0,0,0-9,2.24,18,18,0,0,0-7.54,7.16h-.33V361.44H153.56v78h15.52V409.86q0-8.63,2.84-12.4t9.18-3.77q5.57,0,7.76,3.45T191,407.57v31.91h15.52V404.73a45.85,45.85,0,0,0-.93-9.57A18.23,18.23,0,0,0,202.4,387.84Zm63.92,39.08v-29.4a13.55,13.55,0,0,0-2.3-8.25,15.68,15.68,0,0,0-5.89-4.86,26.46,26.46,0,0,0-8-2.35,63.59,63.59,0,0,0-8.63-.6,47.13,47.13,0,0,0-9.34.93,26.6,26.6,0,0,0-8.36,3.11,18.51,18.51,0,0,0-6.12,5.79,18,18,0,0,0-2.73,9.07h15.51q.44-4.59,3.07-6.56a11.77,11.77,0,0,1,7.21-2,26.26,26.26,0,0,1,3.88.27,8.65,8.65,0,0,1,3.17,1.09,6,6,0,0,1,2.18,2.3,8.24,8.24,0,0,1,.82,4,4.21,4.21,0,0,1-1.42,3.66,10.4,10.4,0,0,1-4.15,1.91,39.85,39.85,0,0,1-6,1q-3.39.33-6.88.88a64.53,64.53,0,0,0-6.94,1.47,19.71,19.71,0,0,0-6.12,2.78,14.24,14.24,0,0,0-4.37,5,16.52,16.52,0,0,0-1.69,7.92,17.72,17.72,0,0,0,1.48,7.54,14.17,14.17,0,0,0,4.1,5.25,17.26,17.26,0,0,0,6.12,3.06,27.8,27.8,0,0,0,7.54,1,35.21,35.21,0,0,0,10.27-1.53,20.25,20.25,0,0,0,8.75-5.36,23.53,23.53,0,0,0,.38,2.79,22,22,0,0,0,.71,2.68h15.74a13.12,13.12,0,0,1-1.53-5.25A58.31,58.31,0,0,1,266.32,426.92Zm-15.52-9.3a29,29,0,0,1-.27,3.5,11.69,11.69,0,0,1-1.47,4.32,10.23,10.23,0,0,1-3.72,3.66,13.65,13.65,0,0,1-7.11,1.54,19.34,19.34,0,0,1-3.6-.33,8.74,8.74,0,0,1-3.06-1.15,5.88,5.88,0,0,1-2.08-2.24,7.33,7.33,0,0,1-.76-3.5,7.6,7.6,0,0,1,.76-3.61,7.1,7.1,0,0,1,2-2.35,10.31,10.31,0,0,1,2.95-1.48,28.48,28.48,0,0,1,3.44-.87c1.23-.21,2.48-.4,3.71-.55s2.43-.33,3.55-.54a25.13,25.13,0,0,0,3.17-.82,6.93,6.93,0,0,0,2.46-1.36ZM295.28,366H279.76V383h-9.39v10.38h9.39V426.7a14.46,14.46,0,0,0,1.42,6.88,10.14,10.14,0,0,0,3.88,4,16.1,16.1,0,0,0,5.68,1.91,45.52,45.52,0,0,0,6.83.49c1.54,0,3.1,0,4.7-.11a35.57,35.57,0,0,0,4.37-.44v-12a20,20,0,0,1-2.3.33c-.8.07-1.64.11-2.51.11-2.62,0-4.37-.44-5.25-1.32s-1.31-2.62-1.31-5.25v-28h11.36V383H295.28Zm64.14,48.69a14.07,14.07,0,0,0-4-4.48,22,22,0,0,0-5.74-2.9A67.86,67.86,0,0,0,343,405.5q-3.28-.77-6.44-1.42a50.45,50.45,0,0,1-5.63-1.47,11.73,11.73,0,0,1-4-2.14,4.23,4.23,0,0,1-1.53-3.38,4.17,4.17,0,0,1,.87-2.79,5.85,5.85,0,0,1,2.13-1.59,9.75,9.75,0,0,1,2.78-.71,27.8,27.8,0,0,1,2.84-.16,15.51,15.51,0,0,1,7.22,1.58q3.05,1.58,3.38,6.06h14.75a18.56,18.56,0,0,0-2.68-8.69,17.67,17.67,0,0,0-5.63-5.52,23.53,23.53,0,0,0-7.71-3,44.76,44.76,0,0,0-8.9-.87,48.9,48.9,0,0,0-9,.82,24.69,24.69,0,0,0-7.87,2.84,15.71,15.71,0,0,0-5.63,5.52,17,17,0,0,0-2.13,9,12.08,12.08,0,0,0,1.53,6.29,13.22,13.22,0,0,0,4,4.26,22.58,22.58,0,0,0,5.74,2.73c2.15.7,4.35,1.3,6.61,1.81a92.07,92.07,0,0,1,13,3.5q4.64,1.75,4.64,5.25a5.72,5.72,0,0,1-1,3.44A7.45,7.45,0,0,1,342,429a11.77,11.77,0,0,1-3.28,1.2,16.5,16.5,0,0,1-3.44.39,17.72,17.72,0,0,1-4.42-.55,11.4,11.4,0,0,1-3.77-1.7,9,9,0,0,1-2.68-3,8.55,8.55,0,0,1-1-4.32H308.61a19,19,0,0,0,2.57,9.45,18.68,18.68,0,0,0,6,6.07,25.46,25.46,0,0,0,8.36,3.28,46.84,46.84,0,0,0,9.61,1,48.51,48.51,0,0,0,9.46-.92,24,24,0,0,0,8.25-3.23,17.86,17.86,0,0,0,5.85-6.07,18.07,18.07,0,0,0,2.23-9.35A13.14,13.14,0,0,0,359.42,414.73Zm30.81-53.29-29.5,78H378l6.12-17.38h29.18l5.9,17.38H437l-29.17-78Zm-1.64,47.87,10.16-28.64H399l9.84,28.64Zm102.05-18.69a23.67,23.67,0,0,0-8-6.66,24.4,24.4,0,0,0-11.47-2.51,22.06,22.06,0,0,0-9.62,2.08,17,17,0,0,0-7.21,6.67h-.22V383H439.4v76.3h15.53V432.49h.21a18.24,18.24,0,0,0,7.27,6.28,22,22,0,0,0,9.67,2.13,23.35,23.35,0,0,0,10.87-2.41,23,23,0,0,0,7.76-6.45,27.91,27.91,0,0,0,4.65-9.29,39.13,39.13,0,0,0,1.53-10.93,43.28,43.28,0,0,0-1.53-11.53A28.36,28.36,0,0,0,490.65,390.63Zm-9.94,27.44a16.55,16.55,0,0,1-2.24,5.74,13.15,13.15,0,0,1-16.88,4,12.23,12.23,0,0,1-4.21-4,17.21,17.21,0,0,1-2.29-5.74,31.26,31.26,0,0,1-.71-6.66,34.48,34.48,0,0,1,.65-6.78,17.14,17.14,0,0,1,2.25-5.8,12.66,12.66,0,0,1,4.15-4.09,11.92,11.92,0,0,1,6.39-1.59,11.73,11.73,0,0,1,6.28,1.59,13,13,0,0,1,4.21,4.15,17.89,17.89,0,0,1,2.35,5.85,31.24,31.24,0,0,1,.71,6.67A34.07,34.07,0,0,1,480.71,418.06Zm76.48-17.76a28.21,28.21,0,0,0-4.7-9.67,23.69,23.69,0,0,0-8-6.66A24.45,24.45,0,0,0,533,381.45a22.07,22.07,0,0,0-9.61,2.08,17.06,17.06,0,0,0-7.21,6.67H516V383H501.25v76.3h15.51V432.49H517a18.27,18.27,0,0,0,7.27,6.28,22,22,0,0,0,9.67,2.13,23.38,23.38,0,0,0,10.87-2.41,23,23,0,0,0,7.76-6.45,27.74,27.74,0,0,0,4.64-9.29,38.68,38.68,0,0,0,1.53-10.93A42.79,42.79,0,0,0,557.19,400.3Zm-14.64,17.76a16.37,16.37,0,0,1-2.24,5.74,12.44,12.44,0,0,1-4.16,4,12.65,12.65,0,0,1-16.94-4,17.33,17.33,0,0,1-2.29-5.74,31.4,31.4,0,0,1-.71-6.66,34.61,34.61,0,0,1,.66-6.78,17.1,17.1,0,0,1,2.24-5.8,12.75,12.75,0,0,1,4.15-4.09,11.93,11.93,0,0,1,6.39-1.59,11.72,11.72,0,0,1,6.28,1.59,13,13,0,0,1,4.21,4.15,17.67,17.67,0,0,1,2.35,5.85,31.13,31.13,0,0,1,.71,6.67A33.92,33.92,0,0,1,542.55,418.06Z"/></svg>