<svg id="Ebene_1" data-name="Ebene 1" xmlns="http://www.w3.org/2000/svg" preserveAspectRatio="none" viewBox="0 0 600 440">
  <defs>
    <style>
      .cls-1 {
        fill: #e52d27;
      }

      .cls-2 {
        fill: #fff;
      }
    </style>
  </defs>
  <title>5c3774fb-565b-4489-b02c-404b81b483b0</title>
  <rect class="cls-1" width="600" height="440"/>
  <path id="u" class="cls-2" d="M236.6,284.7h-19v-11c-7.2,8.3-13.3,12.4-20,12.4s-9.9-2.8-11.9-7.7c-1.2-3-2.1-7.8-2.1-14.7v-80h19v82c0.4,2.8,1.6,3.8,4.1,3.8s6.9-3.2,10.9-8.8v-77h19v101Z"/>
  <path id="o" class="cls-2" d="M169.6,216.7c0-10.8-2.2-18.9-6-24-5.1-6.9-13-9.7-21-9.7s-15.9,2.8-21,9.7c-3.9,5.1-6,13.3-6,24.1v35.9c0,10.7,1.9,18.1,5.8,23.2a26.5,26.5,0,0,0,21.2,10.5A26.8,26.8,0,0,0,164,275.9c3.8-5.1,5.6-12.5,5.6-23.2v-36Zm-19,38c1,10-2.1,15-8,15s-9-5-8-15v-40c-1-10,2.1-14.7,8-14.7s9,4.7,8,14.7v40Z"/>
  <path id="y" class="cls-2" d="M94.6,229.7v55h-20v-55s-20.7-67.4-25-80h21l14,52.7,14-52.7h21Z"/>
  <g>
    <path class="cls-2" d="M432,199.7c-3,0-6.4,1.6-9.4,4.6v60.6c3,3,6.5,4.6,9.4,4.6,5.2,0,7.6-3.8,7.6-13.8v-43C439.6,202.7,437.3,199.7,432,199.7Z"/>
    <path class="cls-2" d="M506.6,211.7c0-9.2-2.4-12-8.4-12s-8.6,2.5-8.6,11.9v11.1h17V211.7Z"/>
    <path class="cls-2" d="M547.7,160.6s-2.9-20.5-11.9-29.5c-11.4-11.8-24.1-11.9-29.9-12.6-41.8-3-104.5-3-104.5-3h-0.1s-62.7,0-104.5,3c-5.8.7-18.6,0.8-29.9,12.6-9,9-11.9,29.5-11.9,29.5a447.5,447.5,0,0,0-3,48.1v22.6a447.5,447.5,0,0,0,3,48.1s2.9,20.5,11.9,29.5c11.4,11.8,26.3,11.5,32.9,12.7,23.9,2.3,101.5,3,101.5,3s62.7-.1,104.5-3.1c5.8-.7,18.6-0.8,29.9-12.6,9-9,11.9-29.5,11.9-29.5a448.1,448.1,0,0,0,3-48.1V208.7A448.1,448.1,0,0,0,547.7,160.6Zm-230,124.1h-20v-115h-21v-19h63v19h-22v115Zm72,0h-19v-11c-7.2,8.3-13.3,12.4-20,12.4s-9.9-2.8-11.9-7.7c-1.2-3-2.1-7.8-2.1-14.7v-79h19v81c0.4,2.8,1.6,3.8,4.1,3.8s6.9-3.2,10.9-8.8v-76h19v100Zm69-30c0,9.2-.8,15.8-2,20-2.4,7.4-7.7,11.3-14.9,11.3s-13-3.9-19.1-11.4v10.1h-18v-134h18v43.7c5.8-7.2,12.5-11.3,19.1-11.3s12.1,4.2,14.5,11.6c1.2,4,2.4,10.5,2.4,20v40Zm39.8,14.8c4.5,0,7.1-2.4,8.1-7.3,0.2-1,.1-5.3.1-12.6h19v2.8a113.9,113.9,0,0,1-.6,11.8,25.8,25.8,0,0,1-4.2,10.8c-5,7.3-12.4,10.8-21.9,10.8s-16.7-3.4-21.9-10.2c-3.8-5-6.3-12.4-6.3-23.1v-35c0-10.7,2.2-18.9,6.1-24,5.2-6.8,12.4-10.5,21.7-10.5s16.3,3.6,21.4,10.5c3.8,5.1,5.9,12.9,5.9,23.5v20.4h-36v18C489.6,264.8,492.2,269.5,498.4,269.5Z"/>
  </g>
</svg>
