<svg id="YouTube_Logo" data-name="YouTube Logo" xmlns="http://www.w3.org/2000/svg" viewBox="0 0 600 440"><defs><style>.cls-1{fill:#fff;}</style></defs><title>YouTubeIcon</title><g id="You"><path id="u" class="cls-1" d="M236.62,284.66h-19v-11c-7.2,8.26-13.31,12.43-20,12.43-5.84,0-9.9-2.75-11.93-7.73-1.23-3-2.11-7.75-2.11-14.69v-80h19v82c.44,2.81,1.63,3.83,4.05,3.83,3.64,0,6.93-3.16,10.95-8.83v-77h19Z"/><path id="o" class="cls-1" d="M169.62,216.66c0-10.79-2.17-18.9-6-24-5.06-6.91-13-9.74-21-9.74-9.06,0-15.95,2.83-21,9.74-3.89,5.1-6,13.29-6,24.09l0,35.91c0,10.73,1.86,18.15,5.75,23.2a26.47,26.47,0,0,0,21.25,10.54A26.77,26.77,0,0,0,164,275.86c3.83-5.05,5.6-12.47,5.6-23.2Zm-19,38c1,10-2.1,15-8,15s-9-5-8-15v-40c-1-10,2.1-14.69,8-14.69s9,4.69,8,14.69Z"/><path id="y" class="cls-1" d="M94.62,229.66v55h-20v-55s-20.72-67.43-25-80h21l14,52.68,14-52.68h21Z"/></g><g id="Tube"><path class="cls-1" d="M432,199.72c-3,0-6.39,1.57-9.42,4.56l0,60.65c3,3,6.46,4.56,9.44,4.56,5.22,0,7.58-3.83,7.58-13.83v-43C439.62,202.66,437.26,199.72,432,199.72Z"/><path class="cls-1" d="M506.62,211.74c0-9.24-2.39-12-8.39-12s-8.61,2.55-8.61,11.89v11.06l17,0Z"/><path class="cls-1" d="M547.66,160.56s-2.92-20.48-11.87-29.51c-11.35-11.84-24.08-11.9-29.92-12.59-41.79-3-104.46-3-104.46-3h-.13s-62.68,0-104.47,3c-5.84.69-18.56.75-29.92,12.59-9,9-11.87,29.51-11.87,29.51a447.55,447.55,0,0,0-3,48.11v22.55a447.53,447.53,0,0,0,3,48.11s2.91,20.48,11.87,29.51c11.36,11.84,26.28,11.46,32.93,12.71,23.89,2.28,101.53,3,101.53,3s62.75-.09,104.53-3.1c5.84-.69,18.57-.75,29.92-12.59,9-9,11.87-29.51,11.87-29.51a448.11,448.11,0,0,0,3-48.11V208.68A448.13,448.13,0,0,0,547.66,160.56Zm-230,124.09h-20v-115h-21v-19l63,0v19h-22Zm72,0h-19v-11c-7.2,8.26-13.31,12.43-20,12.43-5.84,0-9.9-2.75-11.93-7.73-1.23-3-2.11-7.75-2.11-14.69v-79h19v81c.44,2.81,1.63,3.83,4.05,3.83,3.64,0,6.93-3.16,10.95-8.83v-76h19Zm69-30c0,9.24-.79,15.76-2,20-2.42,7.43-7.68,11.29-14.89,11.29-6.44,0-13-3.87-19.08-11.36l0,10.07h-18v-134h18l0,43.69c5.85-7.2,12.47-11.29,19.13-11.29,7.21,0,12.05,4.16,14.47,11.65,1.21,4,2.42,10.49,2.42,20Zm39.78,14.83c4.46,0,7.05-2.42,8.09-7.26.17-1,.14-5.3.14-12.57h19v2.83a113.85,113.85,0,0,1-.64,11.78,25.78,25.78,0,0,1-4.23,10.85c-5,7.26-12.44,10.83-21.9,10.83s-16.68-3.41-21.91-10.24c-3.85-5-6.31-12.43-6.31-23.05v-35c0-10.68,2.24-18.94,6.09-24,5.24-6.84,12.45-10.46,21.69-10.46,9.08,0,16.29,3.62,21.37,10.46,3.79,5.05,5.89,12.87,5.89,23.55v20.44h-36v18C489.56,264.84,492.18,269.49,498.4,269.49Z"/></g></svg>